M48
;GenerationSoftware,Autodesk,EAGLE,9.6.2*%
;CreationDate,2024-07-13T19:26:47Z*%
FMAT,2
ICI,OFF
METRIC,TZ,000.000
T4C0.813
T3C1.000
T2C1.016
T1C2.997
%
G90
M71
T1
X3810Y55880
X69850Y36830
X33020Y16510
X87630Y56832
T2
X29845Y20955
X68580Y6667
X34925Y43180
X32385Y43180
X34925Y40640
X32385Y40640
X34925Y38100
X32385Y38100
X34925Y35560
X32385Y35560
X34925Y33020
X32385Y33020
X34925Y30480
X32385Y30480
X34925Y27940
X32385Y27940
X34925Y25400
X68580Y32067
X50165Y29845
X32385Y25400
X43815Y29845
X29845Y34925
T3
X73025Y4430
X73025Y6972
X73025Y9512
X73025Y12052
X83185Y4430
X83185Y6972
X83185Y9512
X6335Y41910
X8877Y41910
X11417Y41910
X6335Y31750
X8877Y31750
X11417Y31750
X6335Y21590
X8877Y21590
X11417Y21590
X6335Y11430
X8877Y11430
X83185Y12052
X11417Y11430
X20305Y41910
X22847Y41910
X25387Y41910
X22847Y31750
X25387Y31750
X20305Y21590
X22847Y21590
X25387Y21590
X20305Y11430
X22847Y11430
X25387Y11430
X64610Y10150
X64610Y12690
X64610Y15230
X64610Y17770
X64610Y20310
X64610Y22850
X64610Y25390
X64610Y27930
X64610Y30470
X64610Y33010
X64610Y35550
X64610Y38090
X64610Y40630
X64610Y45710
X39205Y10150
X39205Y12690
X39205Y15230
X39205Y17770
X39205Y20310
X39205Y22850
X39205Y25390
X39205Y27930
X39205Y30470
X39205Y33010
X39205Y35550
X39205Y38090
X39205Y40630
X39205Y43170
X39205Y45710
X64610Y43170
X78727Y50800
X76185Y50800
X20305Y31750
X81267Y50800
X83807Y50800
X76185Y40640
X78727Y40640
X81267Y40640
X83807Y40640
X76185Y30480
X78727Y30480
X81267Y30480
X83807Y30480
X76185Y20320
X78727Y20320
X81267Y20320
X83807Y20320
T4
X6477Y49530
X10033Y49530
X10160Y5715
X12700Y5715
X7620Y5715
X5080Y5715
X24130Y36195
X26670Y36195
X21590Y36195
X19050Y36195
X24130Y26035
X26670Y26035
X21590Y26035
X19050Y26035
X24130Y15875
X26670Y15875
X21590Y15875
X19050Y15875
X26670Y5715
X21590Y5715
X19050Y5715
X30607Y49530
X34163Y49530
X71755Y48260
X71755Y50800
X71755Y44450
X71755Y41910
X79375Y45085
X76835Y45085
X83185Y45085
X85725Y45085
X79375Y34925
X76835Y34925
X83185Y34925
X85725Y34925
X79375Y24765
X76835Y24765
X83185Y24765
X85725Y24765
X71120Y19050
X71120Y16510
X71120Y22860
X71120Y25400
X33020Y5842
X33020Y9398
X78740Y8890
X78740Y6350
X78740Y12065
X78740Y14605
X10160Y36195
X12700Y36195
X7620Y36195
X5080Y36195
X10160Y26035
X12700Y26035
X7620Y26035
X5080Y26035
X10160Y15875
X12700Y15875
X7620Y15875
X24130Y5715
X53340Y40640
X43180Y57150
X58420Y57150
X60960Y45720
X53340Y45720
X60960Y43180
X53340Y43180
X58420Y54610
X50800Y57150
X50800Y54610
X43180Y54610
X5080Y15875
X60960Y40640
M30