M48
;GenerationSoftware,Autodesk,EAGLE,9.6.2*%
;CreationDate,2024-07-11T11:07:53Z*%
FMAT,2
ICI,OFF
METRIC,TZ,000.000
T4C0.813
T3C1.000
T2C1.016
T1C2.997
%
G90
M71
T1
X66040Y9525
X5715Y9525
X5715Y60960
X48895Y47625
T2
X59690Y67310
X59309Y11303
X59309Y13843
X59309Y16383
X59309Y18923
X50419Y11303
X50419Y13843
X50419Y16383
X50419Y18923
X41529Y11303
X41529Y13843
X41529Y16383
X41529Y18923
X32639Y11303
X32639Y13843
X32639Y16383
X32639Y18923
X21590Y67310
X23749Y11303
X27305Y60960
X27305Y58420
X29845Y60960
X29845Y58420
X32385Y60960
X32385Y58420
X34925Y60960
X34925Y58420
X37465Y60960
X37465Y58420
X40005Y60960
X40005Y58420
X42545Y60960
X42545Y58420
X45085Y60960
X45085Y58420
X6350Y67310
X6350Y69850
X6350Y72390
X13970Y67310
X13970Y69850
X13970Y72390
X21590Y69850
X21590Y72390
X29210Y67310
X29210Y69850
X29210Y72390
X36830Y67310
X36830Y69850
X36830Y72390
X44450Y67310
X44450Y69850
X44450Y72390
X52070Y67310
X52070Y69850
X52070Y72390
X14859Y18923
X14859Y16383
X14859Y13843
X14859Y11303
X23749Y18923
X23749Y16383
X23749Y13843
X59690Y72390
X59690Y69850
T3
X39995Y29370
X42535Y29370
X45075Y29370
X47615Y29370
X12055Y54775
X14595Y54775
X17135Y54775
X19675Y54775
X22215Y54775
X27295Y54775
X29835Y54775
X32375Y54775
X34915Y54775
X37455Y54775
X39995Y54775
X42535Y54775
X45075Y54775
X47615Y54775
X24755Y54775
X12055Y29370
X14595Y29370
X17135Y29370
X19675Y29370
X22215Y29370
X24755Y29370
X27295Y29370
X29835Y29370
X32375Y29370
X34915Y29370
X37455Y29370
T4
X59690Y54102
X59690Y57658
X40640Y67310
X40640Y64770
X40640Y69850
X40640Y72390
X33020Y67310
X33020Y64770
X33020Y69850
X33020Y72390
X25400Y67310
X25400Y64770
X25400Y69850
X25400Y72390
X17780Y67310
X17780Y64770
X17780Y69850
X10160Y67310
X45339Y16383
X54229Y21463
X54229Y18923
X54229Y13843
X54229Y16383
X63119Y21463
X63119Y18923
X63119Y13843
X63119Y16383
X59690Y48133
X59690Y44577
X10160Y72390
X10160Y69850
X10160Y64770
X48260Y69850
X48260Y64770
X48260Y67310
X55880Y72390
X55880Y69850
X55880Y64770
X55880Y67310
X63500Y72390
X63500Y69850
X63500Y64770
X63500Y67310
X18669Y21463
X18669Y18923
X18669Y13843
X18669Y16383
X8763Y19050
X5207Y19050
X27559Y21463
X27559Y18923
X27559Y13843
X17780Y72390
X48260Y72390
X27559Y16383
X36449Y21463
X36449Y18923
X36449Y13843
X36449Y16383
X45339Y21463
X45339Y18923
X45339Y13843
X52070Y33655
X44450Y33655
X60960Y26670
X58420Y26670
X52070Y36195
X44450Y36195
X60960Y32385
X58420Y32385
X52070Y41275
X44450Y41275
X60960Y38100
X58420Y38100
M30