G04 EAGLE Gerber RS-274X export*
G75*
%MOMM*%
%FSLAX34Y34*%
%LPD*%
%INSoldermask Top*%
%IPPOS*%
%AMOC8*
5,1,8,0,0,1.08239X$1,22.5*%
G01*
%ADD10C,3.200400*%
%ADD11P,1.951982X8X202.500000*%
%ADD12C,1.803400*%
%ADD13P,1.649562X8X22.500000*%
%ADD14P,1.649562X8X202.500000*%
%ADD15P,1.649562X8X112.500000*%
%ADD16P,1.649562X8X292.500000*%
%ADD17P,1.951982X8X292.500000*%
%ADD18P,1.869504X8X292.500000*%
%ADD19C,1.711200*%
%ADD20C,1.879600*%
%ADD21P,1.869504X8X22.500000*%


D10*
X38100Y558800D03*
X698500Y368300D03*
X330200Y165100D03*
X876300Y568325D03*
D11*
X64770Y495300D03*
D12*
X100330Y495300D03*
D13*
X101600Y57150D03*
X127000Y57150D03*
D14*
X76200Y57150D03*
X50800Y57150D03*
D13*
X241300Y361950D03*
X266700Y361950D03*
D14*
X215900Y361950D03*
X190500Y361950D03*
D13*
X241300Y260350D03*
X266700Y260350D03*
D14*
X215900Y260350D03*
X190500Y260350D03*
D13*
X241300Y158750D03*
X266700Y158750D03*
D14*
X215900Y158750D03*
X190500Y158750D03*
D13*
X241300Y57150D03*
X266700Y57150D03*
D14*
X215900Y57150D03*
X190500Y57150D03*
D11*
X306070Y495300D03*
D12*
X341630Y495300D03*
D15*
X717550Y482600D03*
X717550Y508000D03*
D16*
X717550Y444500D03*
X717550Y419100D03*
D14*
X793750Y450850D03*
X768350Y450850D03*
D13*
X831850Y450850D03*
X857250Y450850D03*
D14*
X793750Y349250D03*
X768350Y349250D03*
D13*
X831850Y349250D03*
X857250Y349250D03*
D14*
X793750Y247650D03*
X768350Y247650D03*
D13*
X831850Y247650D03*
X857250Y247650D03*
D16*
X711200Y190500D03*
X711200Y165100D03*
D15*
X711200Y228600D03*
X711200Y254000D03*
D17*
X330200Y58420D03*
D12*
X330200Y93980D03*
D16*
X787400Y88900D03*
X787400Y63500D03*
D15*
X787400Y120650D03*
X787400Y146050D03*
D13*
X101600Y361950D03*
X127000Y361950D03*
D14*
X76200Y361950D03*
X50800Y361950D03*
D13*
X101600Y260350D03*
X127000Y260350D03*
D14*
X76200Y260350D03*
X50800Y260350D03*
D13*
X101600Y158750D03*
X127000Y158750D03*
D14*
X76200Y158750D03*
X50800Y158750D03*
D15*
X431800Y546100D03*
X431800Y571500D03*
X508000Y546100D03*
X508000Y571500D03*
X584200Y546100D03*
X584200Y571500D03*
D18*
X349250Y431800D03*
X323850Y431800D03*
X349250Y406400D03*
X323850Y406400D03*
X349250Y381000D03*
X323850Y381000D03*
X349250Y355600D03*
X323850Y355600D03*
X349250Y330200D03*
X323850Y330200D03*
X349250Y304800D03*
X323850Y304800D03*
X349250Y279400D03*
X323850Y279400D03*
X349250Y254000D03*
X323850Y254000D03*
D19*
X761852Y500460D02*
X761852Y515540D01*
X787266Y515540D02*
X787266Y500460D01*
X812666Y500460D02*
X812666Y515540D01*
X838066Y515540D02*
X838066Y500460D01*
X761852Y413940D02*
X761852Y398860D01*
X787266Y398860D02*
X787266Y413940D01*
X812666Y413940D02*
X812666Y398860D01*
X838066Y398860D02*
X838066Y413940D01*
X761852Y312340D02*
X761852Y297260D01*
X787266Y297260D02*
X787266Y312340D01*
X812666Y312340D02*
X812666Y297260D01*
X838066Y297260D02*
X838066Y312340D01*
X761852Y210740D02*
X761852Y195660D01*
X787266Y195660D02*
X787266Y210740D01*
X812666Y210740D02*
X812666Y195660D01*
X838066Y195660D02*
X838066Y210740D01*
X737790Y44302D02*
X722710Y44302D01*
X722710Y69716D02*
X737790Y69716D01*
X737790Y95116D02*
X722710Y95116D01*
X722710Y120516D02*
X737790Y120516D01*
X824310Y44302D02*
X839390Y44302D01*
X839390Y69716D02*
X824310Y69716D01*
X824310Y95116D02*
X839390Y95116D01*
X839390Y120516D02*
X824310Y120516D01*
D14*
X609600Y457200D03*
X533400Y457200D03*
X609600Y431800D03*
X533400Y431800D03*
X609600Y406400D03*
X533400Y406400D03*
D19*
X63352Y411560D02*
X63352Y426640D01*
X88766Y426640D02*
X88766Y411560D01*
X114166Y411560D02*
X114166Y426640D01*
X63352Y325040D02*
X63352Y309960D01*
X88766Y309960D02*
X88766Y325040D01*
X114166Y325040D02*
X114166Y309960D01*
X63352Y223440D02*
X63352Y208360D01*
X88766Y208360D02*
X88766Y223440D01*
X114166Y223440D02*
X114166Y208360D01*
X63352Y121840D02*
X63352Y106760D01*
X88766Y106760D02*
X88766Y121840D01*
X114166Y121840D02*
X114166Y106760D01*
X203052Y411560D02*
X203052Y426640D01*
X228466Y426640D02*
X228466Y411560D01*
X253866Y411560D02*
X253866Y426640D01*
X203052Y325040D02*
X203052Y309960D01*
X228466Y309960D02*
X228466Y325040D01*
X253866Y325040D02*
X253866Y309960D01*
X203052Y223440D02*
X203052Y208360D01*
X228466Y208360D02*
X228466Y223440D01*
X253866Y223440D02*
X253866Y208360D01*
X203052Y121840D02*
X203052Y106760D01*
X228466Y106760D02*
X228466Y121840D01*
X253866Y121840D02*
X253866Y106760D01*
D20*
X646100Y101500D03*
X646100Y126900D03*
X646100Y152300D03*
X646100Y177700D03*
X646100Y203100D03*
X646100Y228500D03*
X646100Y253900D03*
X646100Y279300D03*
X646100Y304700D03*
X646100Y330100D03*
X646100Y355500D03*
X646100Y380900D03*
X646100Y406300D03*
X646100Y431700D03*
X646100Y457100D03*
X392050Y101500D03*
X392050Y126900D03*
X392050Y152300D03*
X392050Y177700D03*
X392050Y203100D03*
X392050Y228500D03*
X392050Y253900D03*
X392050Y279300D03*
X392050Y304700D03*
X392050Y330100D03*
X392050Y355500D03*
X392050Y380900D03*
X392050Y406300D03*
X392050Y431700D03*
X392050Y457100D03*
D21*
X298450Y209550D03*
X298450Y349250D03*
X438150Y298450D03*
X501650Y298450D03*
X685800Y320675D03*
X685800Y66675D03*
M02*
